<svg version="1.1" id="Layer_1" xmlns="http://www.w3.org/2000/svg" xmlns:xlink="http://www.w3.org/1999/xlink" x="0px" y="0px"
	 width="100%" viewBox="0 0 875 875" enable-background="new 0 0 875 875" xml:space="preserve">
<path fill="#000000" opacity="1.000000" stroke="none" 
	d="
M428.000000,876.000000 
	C285.333344,876.000000 143.166672,876.000000 1.000000,876.000000 
	C1.000000,584.333313 1.000000,292.666656 1.000000,1.000000 
	C292.666656,1.000000 584.333313,1.000000 876.000000,1.000000 
	C876.000000,292.666656 876.000000,584.333313 876.000000,876.000000 
	C726.833313,876.000000 577.666687,876.000000 428.000000,876.000000 
M404.195892,310.302673 
	C401.084473,306.006531 398.432587,301.266266 394.783264,297.489960 
	C377.643341,279.753601 355.669067,272.184998 331.878052,271.267975 
	C301.940033,270.114014 271.926239,270.923248 241.945145,270.907288 
	C241.674850,270.907135 241.404388,271.207214 240.840347,271.540771 
	C240.840347,284.339539 240.725204,297.304169 240.941238,310.263306 
	C240.982513,312.739502 241.845200,315.493530 243.153671,317.609314 
	C251.108200,330.471680 259.307678,343.182434 267.412598,355.951874 
	C272.008270,363.192505 276.579590,370.448578 281.673401,378.506897 
	C267.547119,378.506897 254.335693,378.506897 241.167877,378.506897 
	C241.167877,429.104034 241.167877,479.146973 241.167877,529.238586 
	C255.589478,529.238586 269.681213,529.238586 284.141418,529.238586 
	C284.141418,493.200531 284.141418,457.433472 284.141418,421.511139 
	C296.669281,421.511139 308.864227,422.109436 320.972473,421.341278 
	C332.855804,420.587402 344.993530,419.718903 356.414764,416.649902 
	C381.398010,409.936676 401.254425,396.164001 409.356110,370.094879 
	C415.627899,349.913788 413.901550,330.023682 404.195892,310.302673 
M567.452576,442.500366 
	C567.452576,432.002136 567.304321,421.500214 567.562683,411.008362 
	C567.623108,408.554443 568.525696,405.753632 569.945435,403.755005 
	C600.198425,361.164948 630.582092,318.667664 660.932251,276.146576 
	C662.038940,274.596222 663.064270,272.987885 664.515991,270.828613 
	C647.718262,270.828613 631.753052,270.922729 615.790833,270.746338 
	C612.730652,270.712494 611.017395,271.791138 609.325928,274.179291 
	C591.632751,299.160431 573.838562,324.070038 556.066040,348.994934 
	C552.842468,353.515717 549.590210,358.016052 546.124207,362.841827 
	C544.905762,361.245087 544.086548,360.227356 543.326416,359.167236 
	C523.062622,330.906128 502.770966,302.664886 482.603516,274.335205 
	C480.767487,271.756042 478.920288,270.697571 475.686218,270.741974 
	C461.191467,270.940918 446.692444,270.822601 432.194946,270.838226 
	C430.798218,270.839722 429.401642,270.975494 427.376221,271.082001 
	C428.319214,272.471313 428.834076,273.263977 429.382324,274.032776 
	C459.908051,316.835968 490.407928,359.657654 521.023560,402.396454 
	C523.274048,405.538147 524.238159,408.599487 524.225098,412.461792 
	C524.099487,449.621613 524.149841,486.782013 524.149841,523.942261 
	C524.149841,525.688110 524.149902,527.434021 524.149902,529.200195 
	C538.923340,529.200195 552.998657,529.200195 567.452576,529.200195 
	C567.452576,500.426636 567.452576,471.963531 567.452576,442.500366 
M312.988129,587.468140 
	C312.988129,590.574829 312.988129,593.681519 312.988129,596.706299 
	C315.959625,596.706299 318.355743,596.706299 321.163940,596.706299 
	C321.163940,591.021545 321.163940,585.634583 321.163940,578.824463 
	C323.193573,580.666870 324.486664,581.490967 325.301910,582.650879 
	C327.208405,585.363464 329.312653,588.060364 330.564697,591.083374 
	C333.004608,596.974365 337.170380,598.167114 343.273102,596.465881 
	C339.762512,590.760437 336.320404,585.166199 332.879730,579.574341 
	C340.015564,575.262573 341.940582,571.952332 341.048279,565.669312 
	C340.387115,561.013550 336.851379,556.962524 331.426270,556.210999 
	C325.440887,555.381775 319.322815,555.510376 311.312653,555.128967 
	C313.814362,561.778809 315.752319,566.930115 317.659637,572.000061 
	C316.274994,572.214294 314.703796,572.457336 312.988159,572.722778 
	C312.988159,577.520630 312.988159,582.001648 312.988129,587.468140 
M412.851685,579.805237 
	C413.140961,577.457642 413.430237,575.110046 413.802795,572.086548 
	C407.602661,572.086548 402.233124,572.086548 397.144928,572.086548 
	C397.144928,568.732788 397.144928,565.994080 397.144928,562.843140 
	C403.703339,562.843140 409.928070,562.843140 416.063293,562.843140 
	C416.063293,560.161865 416.063293,557.927490 416.063293,555.733887 
	C406.811737,555.733887 397.926849,555.733887 388.929901,555.733887 
	C388.929901,569.627563 388.929901,583.194946 388.929901,596.676025 
	C398.406891,596.676025 407.637238,596.676025 416.684753,596.676025 
	C416.684753,594.065918 416.684753,591.805420 416.684753,589.117798 
	C409.992523,589.117798 403.580231,589.117798 396.994690,589.117798 
	C396.994690,585.939941 396.994690,583.197205 396.994690,579.980713 
	C402.074615,579.980713 407.021606,579.980713 412.851685,579.805237 
M464.905151,593.599365 
	C466.120911,594.448914 467.242065,595.505554 468.568970,596.111816 
	C474.015411,598.600342 479.310791,598.218750 484.031342,594.449768 
	C488.137695,591.171204 488.922272,586.526489 487.748627,581.757874 
	C486.360931,576.119446 482.169128,573.360718 476.580658,572.548828 
	C475.757385,572.429260 474.714508,572.581604 474.153778,572.132751 
	C472.631134,570.914001 470.651398,569.646667 470.135834,567.997559 
	C469.764618,566.809998 471.168488,563.972412 472.285400,563.656616 
	C474.243103,563.103271 477.950378,563.196289 478.531769,564.290222 
	C480.865631,568.681824 484.216949,567.707581 487.720703,567.333252 
	C487.683563,560.478699 483.590515,555.837708 477.069794,555.045959 
	C469.988892,554.186218 463.485199,558.310059 462.059906,564.563293 
	C460.536133,571.248657 463.617889,576.889526 470.191956,579.114624 
	C472.053314,579.744690 474.333099,579.444885 475.960052,580.376465 
	C477.625885,581.330322 479.484985,583.121155 479.823517,584.830139 
	C480.074005,586.094543 478.296478,588.680481 476.928131,589.112610 
	C475.223389,589.650940 471.678467,589.141602 471.243134,588.108826 
	C469.143250,583.127441 465.366364,585.343384 460.869019,584.688416 
	C462.309967,588.107971 463.354950,590.587891 464.905151,593.599365 
M539.975647,564.695435 
	C539.975647,575.441040 539.975647,586.186646 539.975647,596.807861 
	C542.948914,596.807861 545.232178,596.807861 548.014282,596.807861 
	C548.014282,585.377991 548.014282,574.148987 548.014282,562.664307 
	C550.971130,562.664307 553.422913,562.664307 556.132385,562.664307 
	C556.132385,560.181580 556.132385,557.972839 556.132385,555.790100 
	C547.730896,555.790100 539.683411,555.790100 531.670654,555.790100 
	C531.670654,558.255371 531.670654,560.333923 531.670654,562.206177 
	C534.677734,562.763611 537.308533,563.251282 539.975647,564.695435 
M259.800018,592.013245 
	C260.674652,593.705994 261.170441,596.171631 262.544617,596.845215 
	C263.629822,597.377075 266.388000,596.127563 267.282928,594.871277 
	C267.934296,593.956848 267.292328,591.187866 266.287994,590.219177 
	C264.101410,588.110046 261.755310,588.907349 259.800018,592.013245 
z"/>
<path fill="#FEFEFE" opacity="1.000000" stroke="none" 
	d="
M404.404175,310.608459 
	C413.901550,330.023682 415.627899,349.913788 409.356110,370.094879 
	C401.254425,396.164001 381.398010,409.936676 356.414764,416.649902 
	C344.993530,419.718903 332.855804,420.587402 320.972473,421.341278 
	C308.864227,422.109436 296.669281,421.511139 284.141418,421.511139 
	C284.141418,457.433472 284.141418,493.200531 284.141418,529.238586 
	C269.681213,529.238586 255.589478,529.238586 241.167877,529.238586 
	C241.167877,479.146973 241.167877,429.104034 241.167877,378.506897 
	C254.335693,378.506897 267.547119,378.506897 281.673401,378.506897 
	C276.579590,370.448578 272.008270,363.192505 267.412598,355.951874 
	C259.307678,343.182434 251.108200,330.471680 243.153671,317.609314 
	C241.845200,315.493530 240.982513,312.739502 240.941238,310.263306 
	C240.725204,297.304169 240.840347,284.339539 240.840347,271.540771 
	C241.404388,271.207214 241.674850,270.907135 241.945145,270.907288 
	C271.926239,270.923248 301.940033,270.114014 331.878052,271.267975 
	C355.669067,272.184998 377.643341,279.753601 394.783264,297.489960 
	C398.432587,301.266266 401.084473,306.006531 404.404175,310.608459 
M319.989563,358.505920 
	C323.519287,364.135193 326.915375,369.856384 330.676941,375.326233 
	C331.567352,376.621033 333.985687,378.095337 335.188629,377.742035 
	C342.154449,375.695923 349.513733,374.088898 355.727722,370.554016 
	C373.704163,360.327820 375.196838,336.342499 358.843262,323.737183 
	C354.879761,320.682159 349.881744,318.718414 345.083252,317.044861 
	C331.220093,312.209808 316.752350,314.444550 302.516052,314.013672 
	C299.305023,313.916443 296.088562,313.999359 292.116089,313.999359 
	C301.661102,329.225952 310.642365,343.553223 319.989563,358.505920 
z"/>
<path fill="#FDFDFD" opacity="1.000000" stroke="none" 
	d="
M567.452576,443.000366 
	C567.452576,471.963531 567.452576,500.426636 567.452576,529.200195 
	C552.998657,529.200195 538.923340,529.200195 524.149902,529.200195 
	C524.149902,527.434021 524.149841,525.688110 524.149841,523.942261 
	C524.149841,486.782013 524.099487,449.621613 524.225098,412.461792 
	C524.238159,408.599487 523.274048,405.538147 521.023560,402.396454 
	C490.407928,359.657654 459.908051,316.835968 429.382324,274.032776 
	C428.834076,273.263977 428.319214,272.471313 427.376221,271.082001 
	C429.401642,270.975494 430.798218,270.839722 432.194946,270.838226 
	C446.692444,270.822601 461.191467,270.940918 475.686218,270.741974 
	C478.920288,270.697571 480.767487,271.756042 482.603516,274.335205 
	C502.770966,302.664886 523.062622,330.906128 543.326416,359.167236 
	C544.086548,360.227356 544.905762,361.245087 546.124207,362.841827 
	C549.590210,358.016052 552.842468,353.515717 556.066040,348.994934 
	C573.838562,324.070038 591.632751,299.160431 609.325928,274.179291 
	C611.017395,271.791138 612.730652,270.712494 615.790833,270.746338 
	C631.753052,270.922729 647.718262,270.828613 664.515991,270.828613 
	C663.064270,272.987885 662.038940,274.596222 660.932251,276.146576 
	C630.582092,318.667664 600.198425,361.164948 569.945435,403.755005 
	C568.525696,405.753632 567.623108,408.554443 567.562683,411.008362 
	C567.304321,421.500214 567.452576,432.002136 567.452576,443.000366 
z"/>
<path fill="#F8F8F8" opacity="1.000000" stroke="none" 
	d="
M312.988159,586.975403 
	C312.988159,582.001648 312.988159,577.520630 312.988159,572.722778 
	C314.703796,572.457336 316.274994,572.214294 317.659637,572.000061 
	C315.752319,566.930115 313.814362,561.778809 311.312653,555.128967 
	C319.322815,555.510376 325.440887,555.381775 331.426270,556.210999 
	C336.851379,556.962524 340.387115,561.013550 341.048279,565.669312 
	C341.940582,571.952332 340.015564,575.262573 332.879730,579.574341 
	C336.320404,585.166199 339.762512,590.760437 343.273102,596.465881 
	C337.170380,598.167114 333.004608,596.974365 330.564697,591.083374 
	C329.312653,588.060364 327.208405,585.363464 325.301910,582.650879 
	C324.486664,581.490967 323.193573,580.666870 321.163940,578.824463 
	C321.163940,585.634583 321.163940,591.021545 321.163940,596.706299 
	C318.355743,596.706299 315.959625,596.706299 312.988129,596.706299 
	C312.988129,593.681519 312.988129,590.574829 312.988159,586.975403 
M324.864899,563.221680 
	C324.381500,563.860168 323.349854,564.752136 323.507965,565.094055 
	C324.264343,566.729919 325.185699,568.352844 326.360168,569.710754 
	C327.207092,570.690063 328.980408,572.115601 329.574280,571.817139 
	C330.986298,571.107605 332.561401,569.634583 332.890320,568.199463 
	C333.156921,567.036560 332.045990,564.919312 330.928619,564.237854 
	C329.500519,563.367004 327.452118,563.513245 324.864899,563.221680 
z"/>
<path fill="#F4F4F4" opacity="1.000000" stroke="none" 
	d="
M412.410156,579.892944 
	C407.021606,579.980713 402.074615,579.980713 396.994690,579.980713 
	C396.994690,583.197205 396.994690,585.939941 396.994690,589.117798 
	C403.580231,589.117798 409.992523,589.117798 416.684753,589.117798 
	C416.684753,591.805420 416.684753,594.065918 416.684753,596.676025 
	C407.637238,596.676025 398.406891,596.676025 388.929901,596.676025 
	C388.929901,583.194946 388.929901,569.627563 388.929901,555.733887 
	C397.926849,555.733887 406.811737,555.733887 416.063293,555.733887 
	C416.063293,557.927490 416.063293,560.161865 416.063293,562.843140 
	C409.928070,562.843140 403.703339,562.843140 397.144928,562.843140 
	C397.144928,565.994080 397.144928,568.732788 397.144928,572.086548 
	C402.233124,572.086548 407.602661,572.086548 413.802795,572.086548 
	C413.430237,575.110046 413.140961,577.457642 412.410156,579.892944 
z"/>
<path fill="#F8F8F8" opacity="1.000000" stroke="none" 
	d="
M464.652527,593.333618 
	C463.354950,590.587891 462.309967,588.107971 460.869019,584.688416 
	C465.366364,585.343384 469.143250,583.127441 471.243134,588.108826 
	C471.678467,589.141602 475.223389,589.650940 476.928131,589.112610 
	C478.296478,588.680481 480.074005,586.094543 479.823517,584.830139 
	C479.484985,583.121155 477.625885,581.330322 475.960052,580.376465 
	C474.333099,579.444885 472.053314,579.744690 470.191956,579.114624 
	C463.617889,576.889526 460.536133,571.248657 462.059906,564.563293 
	C463.485199,558.310059 469.988892,554.186218 477.069794,555.045959 
	C483.590515,555.837708 487.683563,560.478699 487.720703,567.333252 
	C484.216949,567.707581 480.865631,568.681824 478.531769,564.290222 
	C477.950378,563.196289 474.243103,563.103271 472.285400,563.656616 
	C471.168488,563.972412 469.764618,566.809998 470.135834,567.997559 
	C470.651398,569.646667 472.631134,570.914001 474.153778,572.132751 
	C474.714508,572.581604 475.757385,572.429260 476.580658,572.548828 
	C482.169128,573.360718 486.360931,576.119446 487.748627,581.757874 
	C488.922272,586.526489 488.137695,591.171204 484.031342,594.449768 
	C479.310791,598.218750 474.015411,598.600342 468.568970,596.111816 
	C467.242065,595.505554 466.120911,594.448914 464.652527,593.333618 
z"/>
<path fill="#F4F4F4" opacity="1.000000" stroke="none" 
	d="
M539.957520,564.217163 
	C537.308533,563.251282 534.677734,562.763611 531.670654,562.206177 
	C531.670654,560.333923 531.670654,558.255371 531.670654,555.790100 
	C539.683411,555.790100 547.730896,555.790100 556.132385,555.790100 
	C556.132385,557.972839 556.132385,560.181580 556.132385,562.664307 
	C553.422913,562.664307 550.971130,562.664307 548.014282,562.664307 
	C548.014282,574.148987 548.014282,585.377991 548.014282,596.807861 
	C545.232178,596.807861 542.948914,596.807861 539.975647,596.807861 
	C539.975647,586.186646 539.975647,575.441040 539.957520,564.217163 
z"/>
<path fill="#F4F4F4" opacity="1.000000" stroke="none" 
	d="
M259.908813,591.674194 
	C261.755310,588.907349 264.101410,588.110046 266.287994,590.219177 
	C267.292328,591.187866 267.934296,593.956848 267.282928,594.871277 
	C266.388000,596.127563 263.629822,597.377075 262.544617,596.845215 
	C261.170441,596.171631 260.674652,593.705994 259.908813,591.674194 
z"/>
<path fill="#020202" opacity="1.000000" stroke="none" 
	d="
M319.806580,358.193207 
	C310.642365,343.553223 301.661102,329.225952 292.116089,313.999359 
	C296.088562,313.999359 299.305023,313.916443 302.516052,314.013672 
	C316.752350,314.444550 331.220093,312.209808 345.083252,317.044861 
	C349.881744,318.718414 354.879761,320.682159 358.843262,323.737183 
	C375.196838,336.342499 373.704163,360.327820 355.727722,370.554016 
	C349.513733,374.088898 342.154449,375.695923 335.188629,377.742035 
	C333.985687,378.095337 331.567352,376.621033 330.676941,375.326233 
	C326.915375,369.856384 323.519287,364.135193 319.806580,358.193207 
z"/>
<path fill="#020202" opacity="1.000000" stroke="none" 
	d="
M325.267944,563.221436 
	C327.452118,563.513245 329.500519,563.367004 330.928619,564.237854 
	C332.045990,564.919312 333.156921,567.036560 332.890320,568.199463 
	C332.561401,569.634583 330.986298,571.107605 329.574280,571.817139 
	C328.980408,572.115601 327.207092,570.690063 326.360168,569.710754 
	C325.185699,568.352844 324.264343,566.729919 323.507965,565.094055 
	C323.349854,564.752136 324.381500,563.860168 325.267944,563.221436 
z"/>
</svg>